<svg height="512" viewBox="0 0 64 64" width="512" xmlns="http://www.w3.org/2000/svg"><g id="Circuit"><g fill="#9bc9ff"><circle cx="58" cy="22" r="3"/><circle cx="58" cy="32" r="3"/><circle cx="58" cy="42" r="3"/><circle cx="52" cy="6" r="3"/><circle cx="52" cy="58" r="3"/><circle cx="42" cy="6" r="3"/><circle cx="42" cy="58" r="3"/><path d="m41 40a2.006 2.006 0 0 0 2-2v-12a2 2 0 0 0 -2-2h-18a2 2 0 0 0 -2 2v12a2.006 2.006 0 0 0 2 2zm-14-8a2 2 0 1 1 2-2 2.006 2.006 0 0 1 -2 2zm10 0a2 2 0 1 1 2-2 2.006 2.006 0 0 1 -2 2z"/><circle cx="32" cy="6" r="3"/><circle cx="32" cy="58" r="3"/><path d="m30 18v2h4v-2a2.015 2.015 0 0 0 -2-2 2.006 2.006 0 0 0 -2 2z"/><circle cx="22" cy="6" r="3"/><circle cx="22" cy="58" r="3"/><circle cx="12" cy="6" r="3"/><circle cx="12" cy="58" r="3"/><circle cx="6" cy="22" r="3"/><circle cx="6" cy="32" r="3"/><circle cx="6" cy="42" r="3"/></g><path d="m54.142 33a4 4 0 1 0 0-2h-10.142v-2h8a1 1 0 0 0 1-1v-5h1.142a4 4 0 1 0 0-2h-2.142a1 1 0 0 0 -1 1v5h-7v-1a2.985 2.985 0 0 0 -1-2.22v-5.78h9a1 1 0 0 0 1-1v-7.142a4 4 0 1 0 -2 0v6.142h-9a1 1 0 0 0 -1 1v6h-2v-1a3 3 0 0 0 -2-2.816v-5.184h5a1 1 0 0 0 1-1v-3.142a4 4 0 1 0 -2 0v2.142h-5a1 1 0 0 0 -1 1v5a3 3 0 0 0 -2-2.816v-5.326a4 4 0 1 0 -2 0v5.326a3 3 0 0 0 -2 2.816v-5a1 1 0 0 0 -1-1h-5v-2.142a4 4 0 1 0 -2 0v3.142a1 1 0 0 0 1 1h5v5.184a3 3 0 0 0 -2 2.816v1h-2v-6a1 1 0 0 0 -1-1h-9v-6.142a4 4 0 1 0 -2 0v7.142a1 1 0 0 0 1 1h9v5.78a2.985 2.985 0 0 0 -1 2.22v1h-7v-5a1 1 0 0 0 -1-1h-2.142a4 4 0 1 0 0 2h1.142v5a1 1 0 0 0 1 1h8v2h-10.142a4 4 0 1 0 0 2h10.142v2h-8a1 1 0 0 0 -1 1v5h-1.142a4 4 0 1 0 0 2h2.142a1 1 0 0 0 1-1v-5h7v1a3 3 0 0 0 3 3v5h-11a1 1 0 0 0 -1 1v7.142a4 4 0 1 0 2 0v-6.142h11a1 1 0 0 0 1-1v-6h2v9h-5a1 1 0 0 0 -1 1v3.142a4 4 0 1 0 2 0v-2.142h5a1 1 0 0 0 1-1v-10h2v13.142a4 4 0 1 0 2 0v-13.142h2v10a1 1 0 0 0 1 1h5v2.142a4 4 0 1 0 2 0v-3.142a1 1 0 0 0 -1-1h-5v-9h2v6a1 1 0 0 0 1 1h11v6.142a4 4 0 1 0 2 0v-7.142a1 1 0 0 0 -1-1h-11v-5a3 3 0 0 0 3-3v-1h7v5a1 1 0 0 0 1 1h2.142a4 4 0 1 0 0-2h-1.142v-5a1 1 0 0 0 -1-1h-8v-2zm3.858-3a2 2 0 1 1 -2 2 2 2 0 0 1 2-2zm0-10a2 2 0 1 1 -2 2 2 2 0 0 1 2-2zm-8-14a2 2 0 1 1 2 2 2 2 0 0 1 -2-2zm-10 0a2 2 0 1 1 2 2 2 2 0 0 1 -2-2zm-20 0a2 2 0 1 1 2 2 2 2 0 0 1 -2-2zm-10 0a2 2 0 1 1 2 2 2 2 0 0 1 -2-2zm-4 18a2 2 0 1 1 2-2 2 2 0 0 1 -2 2zm0 10a2 2 0 1 1 2-2 2 2 0 0 1 -2 2zm0 10a2 2 0 1 1 2-2 2 2 0 0 1 -2 2zm8 14a2 2 0 1 1 -2-2 2 2 0 0 1 2 2zm10 0a2 2 0 1 1 -2-2 2 2 0 0 1 2 2zm10 0a2 2 0 1 1 -2-2 2 2 0 0 1 2 2zm10 0a2 2 0 1 1 -2-2 2 2 0 0 1 2 2zm10 0a2 2 0 1 1 -2-2 2 2 0 0 1 2 2zm4-18a2 2 0 1 1 -2 2 2 2 0 0 1 2-2zm-28-34a2 2 0 1 1 2 2 2 2 0 0 1 -2-2zm2 11a1 1 0 0 1 1 1v1h-2v-1a1 1 0 0 1 1-1zm-5 5a1 1 0 0 1 1-1h8a1 1 0 0 1 1 1v1h-10zm15 16a1 1 0 0 1 -1 1h-18a1 1 0 0 1 -1-1v-12a1 1 0 0 1 1-1h18a1 1 0 0 1 1 1z" fill="#57a4ff"/><path d="m30 30a3 3 0 1 0 -3 3 3 3 0 0 0 3-3zm-3 1a1 1 0 1 1 1-1 1 1 0 0 1 -1 1z" fill="#57a4ff"/><path d="m37 27a3 3 0 1 0 3 3 3 3 0 0 0 -3-3zm0 4a1 1 0 1 1 1-1 1 1 0 0 1 -1 1z" fill="#57a4ff"/><path d="m29 35h6v2h-6z" fill="#57a4ff"/><path d="m25 35h2v2h-2z" fill="#57a4ff"/><path d="m37 35h2v2h-2z" fill="#57a4ff"/></g></svg>