<svg width="397" height="397" viewBox="0 0 397 397" fill="none" xmlns="http://www.w3.org/2000/svg">
<g filter="url(#filter0_d)">
<path d="M340.129 160.369C349.155 160.369 356.471 153.053 356.471 144.027C356.471 135.002 349.155 127.685 340.129 127.685C331.104 127.685 323.787 135.002 323.787 144.027C323.787 153.053 331.104 160.369 340.129 160.369Z" fill="white"/>
<path d="M340.129 214.842C349.155 214.842 356.471 207.525 356.471 198.5C356.471 189.475 349.155 182.158 340.129 182.158C331.104 182.158 323.787 189.475 323.787 198.5C323.787 207.525 331.104 214.842 340.129 214.842Z" fill="white"/>
<path d="M340.129 269.315C349.155 269.315 356.471 261.998 356.471 252.973C356.471 243.947 349.155 236.631 340.129 236.631C331.104 236.631 323.787 243.947 323.787 252.973C323.787 261.998 331.104 269.315 340.129 269.315Z" fill="white"/>
<path d="M307.446 73.2126C316.471 73.2126 323.787 65.8961 323.787 56.8707C323.787 47.8454 316.471 40.5289 307.446 40.5289C298.42 40.5289 291.104 47.8454 291.104 56.8707C291.104 65.8961 298.42 73.2126 307.446 73.2126Z" fill="white"/>
<path d="M307.446 356.471C316.471 356.471 323.787 349.155 323.787 340.129C323.787 331.104 316.471 323.787 307.446 323.787C298.42 323.787 291.104 331.104 291.104 340.129C291.104 349.155 298.42 356.471 307.446 356.471Z" fill="white"/>
<path d="M252.973 73.2126C261.998 73.2126 269.315 65.8961 269.315 56.8707C269.315 47.8454 261.998 40.5289 252.973 40.5289C243.947 40.5289 236.631 47.8454 236.631 56.8707C236.631 65.8961 243.947 73.2126 252.973 73.2126Z" fill="white"/>
<path d="M252.973 356.471C261.998 356.471 269.315 349.155 269.315 340.129C269.315 331.104 261.998 323.787 252.973 323.787C243.947 323.787 236.631 331.104 236.631 340.129C236.631 349.155 243.947 356.471 252.973 356.471Z" fill="white"/>
<path d="M247.526 242.078C250.412 242.07 253.178 240.919 255.22 238.878C257.261 236.836 258.411 234.07 258.42 231.184V165.816C258.42 162.927 257.272 160.156 255.229 158.113C253.186 156.07 250.415 154.922 247.526 154.922H149.475C146.585 154.922 143.814 156.07 141.771 158.113C139.728 160.156 138.58 162.927 138.58 165.816V231.184C138.589 234.07 139.739 236.836 141.78 238.878C143.822 240.919 146.588 242.07 149.475 242.078H247.526ZM171.264 198.5C169.109 198.5 167.003 197.861 165.211 196.664C163.419 195.467 162.023 193.765 161.198 191.775C160.374 189.784 160.158 187.593 160.578 185.48C160.999 183.367 162.036 181.425 163.56 179.902C165.084 178.378 167.025 177.341 169.138 176.92C171.252 176.5 173.442 176.716 175.433 177.54C177.424 178.365 179.125 179.761 180.322 181.553C181.519 183.344 182.158 185.451 182.158 187.605C182.15 190.492 180.999 193.258 178.958 195.3C176.916 197.341 174.15 198.491 171.264 198.5ZM225.736 198.5C223.582 198.5 221.475 197.861 219.684 196.664C217.892 195.467 216.496 193.765 215.671 191.775C214.847 189.784 214.631 187.593 215.051 185.48C215.472 183.367 216.509 181.425 218.033 179.902C219.556 178.378 221.498 177.341 223.611 176.92C225.724 176.5 227.915 176.716 229.906 177.54C231.896 178.365 233.598 179.761 234.795 181.553C235.992 183.344 236.631 185.451 236.631 187.605C236.622 190.492 235.472 193.258 233.431 195.3C231.389 197.341 228.623 198.491 225.736 198.5Z" fill="white"/>
<path d="M198.5 73.2126C207.525 73.2126 214.842 65.8961 214.842 56.8707C214.842 47.8454 207.525 40.5289 198.5 40.5289C189.475 40.5289 182.158 47.8454 182.158 56.8707C182.158 65.8961 189.475 73.2126 198.5 73.2126Z" fill="white"/>
<path d="M198.5 356.471C207.525 356.471 214.842 349.155 214.842 340.129C214.842 331.104 207.525 323.787 198.5 323.787C189.475 323.787 182.158 331.104 182.158 340.129C182.158 349.155 189.475 356.471 198.5 356.471Z" fill="white"/>
<path d="M187.605 122.238V133.133H209.395V122.238C209.373 119.355 208.219 116.597 206.18 114.558C204.141 112.52 201.383 111.365 198.5 111.344C195.613 111.352 192.847 112.503 190.806 114.544C188.765 116.585 187.614 119.351 187.605 122.238V122.238Z" fill="white"/>
<path d="M144.027 73.2126C153.053 73.2126 160.369 65.8961 160.369 56.8707C160.369 47.8454 153.053 40.5289 144.027 40.5289C135.002 40.5289 127.685 47.8454 127.685 56.8707C127.685 65.8961 135.002 73.2126 144.027 73.2126Z" fill="white"/>
<path d="M144.027 356.471C153.053 356.471 160.369 349.155 160.369 340.129C160.369 331.104 153.053 323.787 144.027 323.787C135.002 323.787 127.685 331.104 127.685 340.129C127.685 349.155 135.002 356.471 144.027 356.471Z" fill="white"/>
<path d="M89.5545 73.2126C98.5798 73.2126 105.896 65.8961 105.896 56.8707C105.896 47.8454 98.5798 40.5289 89.5545 40.5289C80.5291 40.5289 73.2126 47.8454 73.2126 56.8707C73.2126 65.8961 80.5291 73.2126 89.5545 73.2126Z" fill="white"/>
<path d="M89.5545 356.471C98.5798 356.471 105.896 349.155 105.896 340.129C105.896 331.104 98.5798 323.787 89.5545 323.787C80.5291 323.787 73.2126 331.104 73.2126 340.129C73.2126 349.155 80.5291 356.471 89.5545 356.471Z" fill="white"/>
<path d="M56.8707 160.369C65.8961 160.369 73.2125 153.053 73.2125 144.027C73.2125 135.002 65.8961 127.685 56.8707 127.685C47.8454 127.685 40.5289 135.002 40.5289 144.027C40.5289 153.053 47.8454 160.369 56.8707 160.369Z" fill="white"/>
<path d="M56.8707 214.842C65.8961 214.842 73.2125 207.525 73.2125 198.5C73.2125 189.475 65.8961 182.158 56.8707 182.158C47.8454 182.158 40.5289 189.475 40.5289 198.5C40.5289 207.525 47.8454 214.842 56.8707 214.842Z" fill="white"/>
<path d="M56.8707 269.315C65.8961 269.315 73.2125 261.998 73.2125 252.973C73.2125 243.947 65.8961 236.631 56.8707 236.631C47.8454 236.631 40.5289 243.947 40.5289 252.973C40.5289 261.998 47.8454 269.315 56.8707 269.315Z" fill="white"/>
<path d="M319.114 203.947C320.439 209.082 323.593 213.557 327.982 216.534C332.371 219.51 337.695 220.784 342.956 220.115C348.217 219.447 353.054 216.883 356.56 212.904C360.066 208.925 362 203.803 362 198.5C362 193.197 360.066 188.075 356.56 184.096C353.054 180.117 348.217 177.553 342.956 176.885C337.695 176.216 332.371 177.49 327.982 180.466C323.593 183.443 320.439 187.918 319.114 193.053H263.867V182.158H307.446C308.89 182.158 310.276 181.584 311.297 180.563C312.319 179.541 312.893 178.156 312.893 176.711V149.474H319.114C320.439 154.609 323.593 159.085 327.982 162.061C332.371 165.037 337.695 166.311 342.956 165.643C348.217 164.974 353.054 162.41 356.56 158.431C360.066 154.452 362 149.331 362 144.027C362 138.724 360.066 133.603 356.56 129.623C353.054 125.644 348.217 123.08 342.956 122.412C337.695 121.744 332.371 123.017 327.982 125.993C323.593 128.97 320.439 133.445 319.114 138.58H307.446C306.001 138.58 304.615 139.154 303.594 140.175C302.572 141.197 301.998 142.583 301.998 144.027V171.264H263.867V165.816C263.86 163.531 263.371 161.273 262.433 159.189C261.494 157.106 260.127 155.243 258.42 153.723V122.238H307.446C308.89 122.238 310.276 121.664 311.297 120.643C312.319 119.621 312.893 118.236 312.893 116.791V77.8863C318.028 76.5605 322.503 73.4074 325.479 69.0181C328.456 64.6288 329.729 59.3047 329.061 54.0436C328.393 48.7825 325.829 43.9458 321.849 40.44C317.87 36.9342 312.749 35 307.446 35C302.142 35 297.021 36.9342 293.042 40.44C289.062 43.9458 286.498 48.7825 285.83 54.0436C285.162 59.3047 286.435 64.6288 289.412 69.0181C292.388 73.4074 296.863 76.5605 301.998 77.8863V111.344H252.973C251.528 111.344 250.143 111.917 249.121 112.939C248.099 113.961 247.526 115.346 247.526 116.791V149.474H236.631V144.027C236.617 140.659 235.563 137.378 233.613 134.632C231.663 131.886 228.912 129.81 225.736 128.688V100.449H252.973C254.418 100.449 255.803 99.8751 256.825 98.8535C257.846 97.8319 258.42 96.4464 258.42 95.0017V77.8863C263.555 76.5605 268.03 73.4074 271.007 69.0181C273.983 64.6288 275.257 59.3047 274.588 54.0436C273.92 48.7825 271.356 43.9458 267.377 40.44C263.397 36.9342 258.276 35 252.973 35C247.669 35 242.548 36.9342 238.569 40.44C234.59 43.9458 232.026 48.7825 231.357 54.0436C230.689 59.3047 231.963 64.6288 234.939 69.0181C237.915 73.4074 242.391 76.5605 247.526 77.8863V89.5544H220.289C218.844 89.5544 217.459 90.1283 216.437 91.1499C215.416 92.1714 214.842 93.557 214.842 95.0017V122.238C214.828 118.87 213.774 115.589 211.824 112.843C209.873 110.097 207.123 108.021 203.947 106.899V77.8863C209.082 76.5605 213.557 73.4074 216.534 69.0181C219.51 64.6288 220.784 59.3047 220.115 54.0436C219.447 48.7825 216.883 43.9458 212.904 40.44C208.925 36.9342 203.803 35 198.5 35C193.197 35 188.075 36.9342 184.096 40.44C180.117 43.9458 177.553 48.7825 176.885 54.0436C176.216 59.3047 177.49 64.6288 180.466 69.0181C183.443 73.4074 187.918 76.5605 193.053 77.8863V106.899C189.877 108.021 187.127 110.097 185.176 112.843C183.226 115.589 182.172 118.87 182.158 122.238V95.0017C182.158 93.557 181.584 92.1714 180.563 91.1499C179.541 90.1283 178.156 89.5544 176.711 89.5544H149.474V77.8863C154.609 76.5605 159.085 73.4074 162.061 69.0181C165.037 64.6288 166.311 59.3047 165.643 54.0436C164.974 48.7825 162.41 43.9458 158.431 40.44C154.452 36.9342 149.331 35 144.027 35C138.724 35 133.603 36.9342 129.623 40.44C125.644 43.9458 123.08 48.7825 122.412 54.0436C121.744 59.3047 123.017 64.6288 125.993 69.0181C128.97 73.4074 133.445 76.5605 138.58 77.8863V95.0017C138.58 96.4464 139.154 97.8319 140.175 98.8535C141.197 99.8751 142.583 100.449 144.027 100.449H171.264V128.688C168.088 129.81 165.337 131.886 163.387 134.632C161.437 137.378 160.383 140.659 160.369 144.027V149.474H149.474V116.791C149.474 115.346 148.901 113.961 147.879 112.939C146.857 111.917 145.472 111.344 144.027 111.344H95.0017V77.8863C100.137 76.5605 104.612 73.4074 107.588 69.0181C110.565 64.6288 111.838 59.3047 111.17 54.0436C110.502 48.7825 107.938 43.9458 103.958 40.44C99.979 36.9342 94.8577 35 89.5544 35C84.2511 35 79.1298 36.9342 75.1505 40.44C71.1713 43.9458 68.6072 48.7825 67.939 54.0436C67.2707 59.3047 68.5442 64.6288 71.5206 69.0181C74.4971 73.4074 78.9722 76.5605 84.1071 77.8863V116.791C84.1071 118.236 84.681 119.621 85.7026 120.643C86.7242 121.664 88.1097 122.238 89.5544 122.238H138.58V153.723C136.873 155.243 135.506 157.106 134.567 159.189C133.629 161.273 133.14 163.531 133.133 165.816V171.264H95.0017V144.027C95.0017 142.583 94.4278 141.197 93.4062 140.175C92.3847 139.154 90.9991 138.58 89.5544 138.58H77.8863C76.5605 133.445 73.4074 128.97 69.0181 125.993C64.6288 123.017 59.3047 121.744 54.0436 122.412C48.7825 123.08 43.9458 125.644 40.44 129.623C36.9342 133.603 35 138.724 35 144.027C35 149.331 36.9342 154.452 40.44 158.431C43.9458 162.41 48.7825 164.974 54.0436 165.643C59.3047 166.311 64.6288 165.037 69.0181 162.061C73.4074 159.085 76.5605 154.609 77.8863 149.474H84.1071V176.711C84.1071 178.156 84.681 179.541 85.7026 180.563C86.7242 181.584 88.1097 182.158 89.5544 182.158H133.133V193.053H77.8863C76.5605 187.918 73.4074 183.443 69.0181 180.466C64.6288 177.49 59.3047 176.216 54.0436 176.885C48.7825 177.553 43.9458 180.117 40.44 184.096C36.9342 188.075 35 193.197 35 198.5C35 203.803 36.9342 208.925 40.44 212.904C43.9458 216.883 48.7825 219.447 54.0436 220.115C59.3047 220.784 64.6288 219.51 69.0181 216.534C73.4074 213.557 76.5605 209.082 77.8863 203.947H133.133V214.842H89.5544C88.1097 214.842 86.7242 215.416 85.7026 216.437C84.681 217.459 84.1071 218.844 84.1071 220.289V247.526H77.8863C76.5605 242.391 73.4074 237.915 69.0181 234.939C64.6288 231.963 59.3047 230.689 54.0436 231.357C48.7825 232.026 43.9458 234.59 40.44 238.569C36.9342 242.548 35 247.669 35 252.973C35 258.276 36.9342 263.397 40.44 267.377C43.9458 271.356 48.7825 273.92 54.0436 274.588C59.3047 275.257 64.6288 273.983 69.0181 271.007C73.4074 268.03 76.5605 263.555 77.8863 258.42H89.5544C90.9991 258.42 92.3847 257.846 93.4062 256.825C94.4278 255.803 95.0017 254.418 95.0017 252.973V225.736H133.133V231.184C133.133 235.518 134.854 239.674 137.919 242.739C140.984 245.804 145.14 247.526 149.474 247.526V274.762H89.5544C88.1097 274.762 86.7242 275.336 85.7026 276.357C84.681 277.379 84.1071 278.764 84.1071 280.209V319.114C78.9722 320.439 74.4971 323.593 71.5206 327.982C68.5442 332.371 67.2707 337.695 67.939 342.956C68.6072 348.217 71.1713 353.054 75.1505 356.56C79.1298 360.066 84.2511 362 89.5544 362C94.8577 362 99.979 360.066 103.958 356.56C107.938 353.054 110.502 348.217 111.17 342.956C111.838 337.695 110.565 332.371 107.588 327.982C104.612 323.593 100.137 320.439 95.0017 319.114V285.656H154.922C156.366 285.656 157.752 285.083 158.774 284.061C159.795 283.039 160.369 281.654 160.369 280.209V247.526H171.264V296.551H144.027C142.583 296.551 141.197 297.125 140.175 298.147C139.154 299.168 138.58 300.554 138.58 301.998V319.114C133.445 320.439 128.97 323.593 125.993 327.982C123.017 332.371 121.744 337.695 122.412 342.956C123.08 348.217 125.644 353.054 129.623 356.56C133.603 360.066 138.724 362 144.027 362C149.331 362 154.452 360.066 158.431 356.56C162.41 353.054 164.974 348.217 165.643 342.956C166.311 337.695 165.037 332.371 162.061 327.982C159.085 323.593 154.609 320.439 149.474 319.114V307.446H176.711C178.156 307.446 179.541 306.872 180.563 305.85C181.584 304.829 182.158 303.443 182.158 301.998V247.526H193.053V319.114C187.918 320.439 183.443 323.593 180.466 327.982C177.49 332.371 176.216 337.695 176.885 342.956C177.553 348.217 180.117 353.054 184.096 356.56C188.075 360.066 193.197 362 198.5 362C203.803 362 208.925 360.066 212.904 356.56C216.883 353.054 219.447 348.217 220.115 342.956C220.784 337.695 219.51 332.371 216.534 327.982C213.557 323.593 209.082 320.439 203.947 319.114V247.526H214.842V301.998C214.842 303.443 215.416 304.829 216.437 305.85C217.459 306.872 218.844 307.446 220.289 307.446H247.526V319.114C242.391 320.439 237.915 323.593 234.939 327.982C231.963 332.371 230.689 337.695 231.357 342.956C232.026 348.217 234.59 353.054 238.569 356.56C242.548 360.066 247.669 362 252.973 362C258.276 362 263.397 360.066 267.377 356.56C271.356 353.054 273.92 348.217 274.588 342.956C275.257 337.695 273.983 332.371 271.007 327.982C268.03 323.593 263.555 320.439 258.42 319.114V301.998C258.42 300.554 257.846 299.168 256.825 298.147C255.803 297.125 254.418 296.551 252.973 296.551H225.736V247.526H236.631V280.209C236.631 281.654 237.205 283.039 238.226 284.061C239.248 285.083 240.634 285.656 242.078 285.656H301.998V319.114C296.863 320.439 292.388 323.593 289.412 327.982C286.435 332.371 285.162 337.695 285.83 342.956C286.498 348.217 289.062 353.054 293.042 356.56C297.021 360.066 302.142 362 307.446 362C312.749 362 317.87 360.066 321.849 356.56C325.829 353.054 328.393 348.217 329.061 342.956C329.729 337.695 328.456 332.371 325.479 327.982C322.503 323.593 318.028 320.439 312.893 319.114V280.209C312.893 278.764 312.319 277.379 311.297 276.357C310.276 275.336 308.89 274.762 307.446 274.762H247.526V247.526C251.86 247.526 256.016 245.804 259.081 242.739C262.146 239.674 263.867 235.518 263.867 231.184V225.736H301.998V252.973C301.998 254.418 302.572 255.803 303.594 256.825C304.615 257.846 306.001 258.42 307.446 258.42H319.114C320.439 263.555 323.593 268.03 327.982 271.007C332.371 273.983 337.695 275.257 342.956 274.588C348.217 273.92 353.054 271.356 356.56 267.377C360.066 263.397 362 258.276 362 252.973C362 247.669 360.066 242.548 356.56 238.569C353.054 234.59 348.217 232.026 342.956 231.357C337.695 230.689 332.371 231.963 327.982 234.939C323.593 237.915 320.439 242.391 319.114 247.526H312.893V220.289C312.893 218.844 312.319 217.459 311.297 216.437C310.276 215.416 308.89 214.842 307.446 214.842H263.867V203.947H319.114ZM340.129 187.605C342.284 187.605 344.39 188.244 346.182 189.442C347.974 190.639 349.37 192.34 350.195 194.331C351.019 196.322 351.235 198.512 350.814 200.625C350.394 202.739 349.357 204.68 347.833 206.204C346.309 207.727 344.368 208.765 342.255 209.185C340.141 209.606 337.951 209.39 335.96 208.565C333.969 207.741 332.268 206.344 331.071 204.553C329.874 202.761 329.235 200.655 329.235 198.5C329.235 195.611 330.383 192.84 332.426 190.796C334.469 188.753 337.24 187.605 340.129 187.605ZM340.129 133.133C342.284 133.133 344.39 133.772 346.182 134.969C347.974 136.166 349.37 137.867 350.195 139.858C351.019 141.849 351.235 144.039 350.814 146.153C350.394 148.266 349.357 150.207 347.833 151.731C346.309 153.254 344.368 154.292 342.255 154.712C340.141 155.133 337.951 154.917 335.96 154.092C333.969 153.268 332.268 151.872 331.071 150.08C329.874 148.288 329.235 146.182 329.235 144.027C329.235 141.138 330.383 138.367 332.426 136.324C334.469 134.28 337.24 133.133 340.129 133.133ZM296.551 56.8707C296.551 54.716 297.19 52.6096 298.387 50.818C299.584 49.0264 301.286 47.6301 303.276 46.8055C305.267 45.9809 307.458 45.7651 309.571 46.1855C311.684 46.6059 313.626 47.6435 315.149 49.1671C316.673 50.6907 317.71 52.632 318.131 54.7453C318.551 56.8587 318.335 59.0492 317.511 61.0399C316.686 63.0306 315.29 64.7321 313.498 65.9292C311.707 67.1263 309.6 67.7653 307.446 67.7653C304.556 67.7653 301.785 66.6175 299.742 64.5744C297.699 62.5312 296.551 59.7602 296.551 56.8707ZM242.078 56.8707C242.078 54.716 242.717 52.6096 243.914 50.818C245.111 49.0264 246.813 47.6301 248.804 46.8055C250.794 45.9809 252.985 45.7651 255.098 46.1855C257.212 46.6059 259.153 47.6435 260.676 49.1671C262.2 50.6907 263.238 52.632 263.658 54.7453C264.078 56.8587 263.863 59.0492 263.038 61.0399C262.213 63.0306 260.817 64.7321 259.025 65.9292C257.234 67.1263 255.128 67.7653 252.973 67.7653C250.083 67.7653 247.312 66.6175 245.269 64.5744C243.226 62.5312 242.078 59.7602 242.078 56.8707ZM133.133 56.8707C133.133 54.716 133.772 52.6096 134.969 50.818C136.166 49.0264 137.867 47.6301 139.858 46.8055C141.849 45.9809 144.039 45.7651 146.153 46.1855C148.266 46.6059 150.207 47.6435 151.731 49.1671C153.254 50.6907 154.292 52.632 154.712 54.7453C155.133 56.8587 154.917 59.0492 154.092 61.0399C153.268 63.0306 151.872 64.7321 150.08 65.9292C148.288 67.1263 146.182 67.7653 144.027 67.7653C141.138 67.7653 138.367 66.6175 136.324 64.5744C134.28 62.5312 133.133 59.7602 133.133 56.8707ZM78.6599 56.8707C78.6599 54.716 79.2988 52.6096 80.4959 50.818C81.693 49.0264 83.3945 47.6301 85.3852 46.8055C87.376 45.9809 89.5665 45.7651 91.6798 46.1855C93.7932 46.6059 95.7344 47.6435 97.258 49.1671C98.7817 50.6907 99.8193 52.632 100.24 54.7453C100.66 56.8587 100.444 59.0492 99.6197 61.0399C98.7951 63.0306 97.3987 64.7321 95.6071 65.9292C93.8155 67.1263 91.7092 67.7653 89.5544 67.7653C86.665 67.7653 83.8939 66.6175 81.8508 64.5744C79.8077 62.5312 78.6599 59.7602 78.6599 56.8707ZM56.8707 154.922C54.716 154.922 52.6096 154.283 50.818 153.086C49.0264 151.889 47.6301 150.187 46.8055 148.196C45.9809 146.206 45.7651 144.015 46.1855 141.902C46.6059 139.788 47.6435 137.847 49.1671 136.324C50.6907 134.8 52.632 133.762 54.7453 133.342C56.8587 132.922 59.0492 133.137 61.0399 133.962C63.0306 134.787 64.7321 136.183 65.9292 137.975C67.1263 139.766 67.7653 141.872 67.7653 144.027C67.7653 146.917 66.6175 149.688 64.5744 151.731C62.5312 153.774 59.7602 154.922 56.8707 154.922ZM56.8707 209.395C54.716 209.395 52.6096 208.756 50.818 207.559C49.0264 206.361 47.6301 204.66 46.8055 202.669C45.9809 200.678 45.7651 198.488 46.1855 196.375C46.6059 194.261 47.6435 192.32 49.1671 190.796C50.6907 189.273 52.632 188.235 54.7453 187.815C56.8587 187.394 59.0492 187.61 61.0399 188.435C63.0306 189.259 64.7321 190.656 65.9292 192.447C67.1263 194.239 67.7653 196.345 67.7653 198.5C67.7653 201.389 66.6175 204.161 64.5744 206.204C62.5312 208.247 59.7602 209.395 56.8707 209.395ZM56.8707 263.867C54.716 263.867 52.6096 263.228 50.818 262.031C49.0264 260.834 47.6301 259.133 46.8055 257.142C45.9809 255.151 45.7651 252.961 46.1855 250.847C46.6059 248.734 47.6435 246.793 49.1671 245.269C50.6907 243.746 52.632 242.708 54.7453 242.288C56.8587 241.867 59.0492 242.083 61.0399 242.908C63.0306 243.732 64.7321 245.129 65.9292 246.92C67.1263 248.712 67.7653 250.818 67.7653 252.973C67.7653 255.862 66.6175 258.633 64.5744 260.676C62.5312 262.72 59.7602 263.867 56.8707 263.867ZM100.449 340.129C100.449 342.284 99.81 344.39 98.6129 346.182C97.4158 347.974 95.7143 349.37 93.7236 350.195C91.7329 351.019 89.5423 351.235 87.429 350.814C85.3157 350.394 83.3744 349.357 81.8508 347.833C80.3272 346.309 79.2896 344.368 78.8692 342.255C78.4488 340.141 78.6646 337.951 79.4892 335.96C80.3137 333.969 81.7101 332.268 83.5017 331.071C85.2933 329.874 87.3997 329.235 89.5544 329.235C92.4438 329.235 95.2149 330.383 97.258 332.426C99.3012 334.469 100.449 337.24 100.449 340.129ZM154.922 340.129C154.922 342.284 154.283 344.39 153.086 346.182C151.889 347.974 150.187 349.37 148.196 350.195C146.206 351.019 144.015 351.235 141.902 350.814C139.788 350.394 137.847 349.357 136.324 347.833C134.8 346.309 133.762 344.368 133.342 342.255C132.922 340.141 133.137 337.951 133.962 335.96C134.787 333.969 136.183 332.268 137.975 331.071C139.766 329.874 141.872 329.235 144.027 329.235C146.917 329.235 149.688 330.383 151.731 332.426C153.774 334.469 154.922 337.24 154.922 340.129ZM209.395 340.129C209.395 342.284 208.756 344.39 207.559 346.182C206.361 347.974 204.66 349.37 202.669 350.195C200.678 351.019 198.488 351.235 196.375 350.814C194.261 350.394 192.32 349.357 190.796 347.833C189.273 346.309 188.235 344.368 187.815 342.255C187.394 340.141 187.61 337.951 188.435 335.96C189.259 333.969 190.656 332.268 192.447 331.071C194.239 329.874 196.345 329.235 198.5 329.235C201.389 329.235 204.161 330.383 206.204 332.426C208.247 334.469 209.395 337.24 209.395 340.129ZM263.867 340.129C263.867 342.284 263.228 344.39 262.031 346.182C260.834 347.974 259.133 349.37 257.142 350.195C255.151 351.019 252.961 351.235 250.847 350.814C248.734 350.394 246.793 349.357 245.269 347.833C243.746 346.309 242.708 344.368 242.288 342.255C241.867 340.141 242.083 337.951 242.908 335.96C243.732 333.969 245.129 332.268 246.92 331.071C248.712 329.874 250.818 329.235 252.973 329.235C255.862 329.235 258.633 330.383 260.676 332.426C262.72 334.469 263.867 337.24 263.867 340.129ZM318.34 340.129C318.34 342.284 317.701 344.39 316.504 346.182C315.307 347.974 313.605 349.37 311.615 350.195C309.624 351.019 307.433 351.235 305.32 350.814C303.207 350.394 301.266 349.357 299.742 347.833C298.218 346.309 297.181 344.368 296.76 342.255C296.34 340.141 296.556 337.951 297.38 335.96C298.205 333.969 299.601 332.268 301.393 331.071C303.184 329.874 305.291 329.235 307.446 329.235C310.335 329.235 313.106 330.383 315.149 332.426C317.192 334.469 318.34 337.24 318.34 340.129ZM340.129 242.078C342.284 242.078 344.39 242.717 346.182 243.914C347.974 245.111 349.37 246.813 350.195 248.804C351.019 250.794 351.235 252.985 350.814 255.098C350.394 257.212 349.357 259.153 347.833 260.676C346.309 262.2 344.368 263.238 342.255 263.658C340.141 264.078 337.951 263.863 335.96 263.038C333.969 262.213 332.268 260.817 331.071 259.025C329.874 257.234 329.235 255.128 329.235 252.973C329.235 250.083 330.383 247.312 332.426 245.269C334.469 243.226 337.24 242.078 340.129 242.078ZM187.605 56.8707C187.605 54.716 188.244 52.6096 189.442 50.818C190.639 49.0264 192.34 47.6301 194.331 46.8055C196.322 45.9809 198.512 45.7651 200.625 46.1855C202.739 46.6059 204.68 47.6435 206.204 49.1671C207.727 50.6907 208.765 52.632 209.185 54.7453C209.606 56.8587 209.39 59.0492 208.565 61.0399C207.741 63.0306 206.344 64.7321 204.553 65.9292C202.761 67.1263 200.655 67.7653 198.5 67.7653C195.611 67.7653 192.84 66.6175 190.796 64.5744C188.753 62.5312 187.605 59.7602 187.605 56.8707ZM198.5 116.791C199.945 116.791 201.33 117.365 202.352 118.386C203.373 119.408 203.947 120.793 203.947 122.238V127.685H193.053V122.238C193.053 120.793 193.627 119.408 194.648 118.386C195.67 117.365 197.055 116.791 198.5 116.791ZM171.264 144.027C171.264 142.583 171.838 141.197 172.859 140.175C173.881 139.154 175.266 138.58 176.711 138.58H220.289C221.734 138.58 223.119 139.154 224.141 140.175C225.162 141.197 225.736 142.583 225.736 144.027V149.474H171.264V144.027ZM252.973 231.184C252.973 232.628 252.399 234.014 251.377 235.035C250.356 236.057 248.97 236.631 247.526 236.631H149.474C148.03 236.631 146.644 236.057 145.623 235.035C144.601 234.014 144.027 232.628 144.027 231.184V165.816C144.027 164.372 144.601 162.986 145.623 161.965C146.644 160.943 148.03 160.369 149.474 160.369H247.526C248.97 160.369 250.356 160.943 251.377 161.965C252.399 162.986 252.973 164.372 252.973 165.816V231.184Z" fill="#707CEB"/>
<path d="M187.605 187.605C187.605 184.373 186.647 181.214 184.851 178.526C183.056 175.839 180.503 173.744 177.517 172.508C174.531 171.271 171.245 170.947 168.075 171.578C164.905 172.208 161.994 173.765 159.708 176.05C157.423 178.335 155.866 181.247 155.236 184.417C154.605 187.587 154.929 190.873 156.166 193.859C157.403 196.845 159.497 199.398 162.185 201.193C164.872 202.989 168.031 203.947 171.264 203.947C175.598 203.947 179.754 202.226 182.819 199.161C185.884 196.096 187.605 191.94 187.605 187.605ZM171.264 193.053C170.186 193.053 169.133 192.733 168.237 192.135C167.341 191.536 166.643 190.685 166.231 189.69C165.819 188.695 165.711 187.599 165.921 186.543C166.131 185.486 166.65 184.515 167.412 183.754C168.174 182.992 169.144 182.473 170.201 182.263C171.258 182.053 172.353 182.161 173.348 182.573C174.344 182.985 175.194 183.683 175.793 184.579C176.391 185.475 176.711 186.528 176.711 187.605C176.711 189.05 176.137 190.436 175.115 191.457C174.094 192.479 172.708 193.053 171.264 193.053Z" fill="#707CEB"/>
<path d="M225.736 171.264C222.504 171.264 219.345 172.222 216.657 174.018C213.97 175.813 211.875 178.366 210.639 181.352C209.402 184.338 209.078 187.624 209.709 190.794C210.339 193.964 211.896 196.875 214.181 199.161C216.466 201.446 219.378 203.003 222.548 203.633C225.718 204.264 229.004 203.94 231.99 202.703C234.976 201.466 237.529 199.372 239.324 196.684C241.12 193.997 242.078 190.838 242.078 187.605C242.078 183.271 240.357 179.115 237.292 176.05C234.227 172.985 230.071 171.264 225.736 171.264ZM225.736 193.053C224.659 193.053 223.606 192.733 222.71 192.135C221.814 191.536 221.116 190.685 220.704 189.69C220.292 188.695 220.184 187.599 220.394 186.543C220.604 185.486 221.123 184.515 221.885 183.754C222.646 182.992 223.617 182.473 224.674 182.263C225.73 182.053 226.826 182.161 227.821 182.573C228.816 182.985 229.667 183.683 230.266 184.579C230.864 185.475 231.184 186.528 231.184 187.605C231.184 189.05 230.61 190.436 229.588 191.457C228.567 192.479 227.181 193.053 225.736 193.053Z" fill="#707CEB"/>
<path d="M182.158 214.842H214.842V225.736H182.158V214.842Z" fill="#707CEB"/>
<path d="M160.369 214.842H171.264V225.736H160.369V214.842Z" fill="#707CEB"/>
<path d="M225.736 214.842H236.631V225.736H225.736V214.842Z" fill="#707CEB"/>
</g>
<defs>
<filter id="filter0_d" x="0" y="0" width="397" height="397" filterUnits="userSpaceOnUse" color-interpolation-filters="sRGB">
<feFlood flood-opacity="0" result="BackgroundImageFix"/>
<feColorMatrix in="SourceAlpha" type="matrix" values="0 0 0 0 0 0 0 0 0 0 0 0 0 0 0 0 0 0 127 0"/>
<feOffset/>
<feGaussianBlur stdDeviation="17.5"/>
<feColorMatrix type="matrix" values="0 0 0 0 0.437396 0 0 0 0 0.48574 0 0 0 0 0.920833 0 0 0 0.49 0"/>
<feBlend mode="normal" in2="BackgroundImageFix" result="effect1_dropShadow"/>
<feBlend mode="normal" in="SourceGraphic" in2="effect1_dropShadow" result="shape"/>
</filter>
</defs>
</svg>
